<svg id="Слой_1" data-name="Слой 1" xmlns="http://www.w3.org/2000/svg" viewBox="0 0 200 200"><title>Inst-1</title><path d="M100.06.73c14.89,0,29.78,0,44.67,0a55.05,55.05,0,0,1,53.71,45.53,59.76,59.76,0,0,1,.84,9.54q.09,44.18,0,88.35a55.05,55.05,0,0,1-39.87,53,54.1,54.1,0,0,1-15.23,2.15q-44.17,0-88.35,0A55.11,55.11,0,0,1,.93,148.09c-.09-1.21-.16-2.42-.16-3.63,0-29.64-.29-59.28.09-88.91C1.15,33.51,11.63,17.19,31,6.71a51,51,0,0,1,24.51-6C70.35.7,85.2.73,100.06.73Zm0,44.12A55.15,55.15,0,1,0,155.19,100,55.14,55.14,0,0,0,100,44.85ZM177.25,33.8a11,11,0,1,0-11,11A11,11,0,0,0,177.25,33.8Z"/><path d="M100,133.09a33.09,33.09,0,1,1,33.1-33A33.13,33.13,0,0,1,100,133.09Z"/></svg>