<svg id="Слой_1" data-name="Слой 1" xmlns="http://www.w3.org/2000/svg" viewBox="0 0 200 200"><title>WA-1_Монтажная область 1</title><path id="_1" data-name="1" d="M1,199l1.27-4.69q4.51-16.77,9-33.53c1-3.62,2-7.24,2.91-10.87a1.76,1.76,0,0,0-.18-1.23A98.74,98.74,0,0,1,1.4,93.61a97.29,97.29,0,0,1,9.15-35.67A98.8,98.8,0,0,1,103.77,1.07a97.85,97.85,0,0,1,62,24.82A99.59,99.59,0,0,1,185,49.07a97.48,97.48,0,0,1,10.78,25.58,99.37,99.37,0,0,1,2.57,36.57,97.29,97.29,0,0,1-6.05,24.45A99.63,99.63,0,0,1,149,185.85a98.55,98.55,0,0,1-87.11,5.28c-2.91-1.22-5.7-2.71-8.57-4a1.9,1.9,0,0,0-1.17-.15q-12.66,3-25.3,6L1.8,198.83ZM61.53,46.05v0c-.94,0-1.87,0-2.8,0a9.83,9.83,0,0,0-6.56,2.65,40.28,40.28,0,0,0-3.31,3.48c-6.54,7.59-8.75,16.45-7.53,26.25A46.39,46.39,0,0,0,46,92.91a98,98,0,0,0,7.82,12.57A142.27,142.27,0,0,0,74.2,129.36a93.05,93.05,0,0,0,20.9,15,126.4,126.4,0,0,0,28.8,10.31,34.38,34.38,0,0,0,14,.3c5.23-.93,9.66-3.6,13.74-6.86a16,16,0,0,0,5.11-6.1A33,33,0,0,0,159.18,130a4.23,4.23,0,0,0-2.73-4.3c-5.34-2.56-10.63-5.24-16-7.79-2.77-1.32-5.58-2.6-8.46-3.66-2.43-.9-3.58-.3-5.18,1.74q-4.55,5.76-9.24,11.39c-1.62,1.95-3.07,2.19-5.44,1.18-.59-.24-1.17-.51-1.75-.76A86.58,86.58,0,0,1,97.26,121,80.15,80.15,0,0,1,72.41,94.79c-2.15-3.55-2-4.39.87-7.45,2.65-2.86,5.27-5.74,6.88-9.39a5.59,5.59,0,0,0,.13-4.63c-2.4-5.82-4.79-11.65-7.22-17.47-.87-2.09-1.79-4.16-2.79-6.19A6,6,0,0,0,64.41,46C63.45,46.07,62.49,46.05,61.53,46.05Z"/></svg>